<?xml version="1.0" encoding="UTF-8"?>
<svg width="1501px" height="1948px" viewBox="0 0 1501 1948" version="1.1" xmlns="http://www.w3.org/2000/svg" xmlns:xlink="http://www.w3.org/1999/xlink">
    <!-- Generator: Sketch 50.2 (55047) - http://www.bohemiancoding.com/sketch -->
    <title>Group</title>
    <desc>Created with Sketch.</desc>
    <defs>
        <linearGradient x1="0%" y1="-3.39673913%" x2="111.31976%" y2="100%" id="linearGradient-1">
            <stop stop-color="#FF214B" offset="0%"></stop>
            <stop stop-color="#FE6D47" offset="100%"></stop>
        </linearGradient>
    </defs>
    <g id="Page-1" stroke="none" stroke-width="1" fill="none" fill-rule="evenodd" opacity="0.187109375">
        <g id="Artboard" transform="translate(-518.000000, -97.000000)" stroke="url(#linearGradient-1)" stroke-width="2">
            <g id="Group" transform="translate(518.000000, 98.000000)">
                <path d="M246.531806,1946 L246.671802,1946 C283.337274,1945.99147 320.949848,1937.65839 357.169769,1919.5313 L387.433178,1904.38457 L394.372094,1900.91317 L779.907971,1707.96814 L788.356404,1703.74007 L1116.14103,1539.69823 L1248.71083,1473.36504 L1363.20294,1416.06066 C1545.59902,1324.77332 1545.59902,1064.22912 1363.20294,972.942993 L357.169769,469.472354 C320.972977,451.356228 283.340926,443.020714 246.701018,443 L246.468504,443" id="shape"></path>
                <path d="M0.531806302,1503 L0.671801963,1503 C37.3372743,1502.99147 74.9498476,1494.65839 111.169769,1476.5313 L141.433178,1461.38457 L148.372094,1457.91317 L533.907971,1264.96814 L542.356404,1260.74007 L870.141028,1096.69823 L1002.71083,1030.36504 L1117.20294,973.060662 C1299.59902,881.773322 1299.59902,621.229115 1117.20294,529.942993 L111.169769,26.4723539 C74.9729773,8.35622771 37.3409263,0.020713892 0.701018449,0 L0.468503916,0" id="shape-copy"></path>
            </g>
        </g>
    </g>
</svg>