<?xml version="1.0" encoding="UTF-8" standalone="no"?>
<svg
   xmlns:dc="http://purl.org/dc/elements/1.1/"
   xmlns:cc="http://creativecommons.org/ns#"
   xmlns:rdf="http://www.w3.org/1999/02/22-rdf-syntax-ns#"
   xmlns:svg="http://www.w3.org/2000/svg"
   xmlns="http://www.w3.org/2000/svg"
   viewBox="0 0 140.82133 207.78799"
   height="207.78799"
   width="140.82133"
   xml:space="preserve"
   id="svg2"
   version="1.1"><metadata
     id="metadata8"><rdf:RDF><cc:Work
         rdf:about=""><dc:format>image/svg+xml</dc:format><dc:type
           rdf:resource="http://purl.org/dc/dcmitype/StillImage" /></cc:Work></rdf:RDF></metadata><defs
     id="defs6"><clipPath
       id="clipPath18"
       clipPathUnits="userSpaceOnUse"><path
         id="path16"
         d="M 0,155.841 H 105.616 V 0 H 0 Z" /></clipPath></defs><g
     transform="matrix(1.3333333,0,0,-1.3333333,0,207.788)"
     id="g10"><g
       id="g12"><g
         clip-path="url(#clipPath18)"
         id="g14"><g
           transform="translate(57.3037,77.1309)"
           id="g20"><path
             id="path22"
             style="fill:#ffc200;fill-opacity:1;fill-rule:nonzero;stroke:none"
             d="M 0,0 C -1.704,0 -3.472,0.842 -4.315,1.346 L -27.78,24.811 c -0.752,1.204 -2.595,4.788 0.077,7.461 4.782,4.782 17.265,17.513 23.729,24.115 L 3.271,49.142 C -4.079,40.023 -10.592,24.051 0.707,0.053 0.48,0.017 0.245,0 0,0" /></g><g
           transform="translate(53.2871,141.5781)"
           id="g24"><path
             id="path26"
             style="fill:none;stroke:#293f54;stroke-width:3;stroke-linecap:round;stroke-linejoin:round;stroke-miterlimit:10;stroke-dasharray:none;stroke-opacity:1"
             d="m 0,0 c 0,0 -21.095,-21.566 -27.695,-28.167 -6.6,-6.601 -0.471,-15.085 -0.471,-15.085 l 8.72,-8.72 6.836,-6.836 8.719,-8.719 c 0,0 8.486,-6.129 15.085,0.47 6.601,6.601 28.167,27.696 28.167,27.696 z" /></g><g
           transform="translate(85.9316,147.8242)"
           id="g28"><path
             id="path30"
             style="fill:none;stroke:#293f54;stroke-width:2.59800005;stroke-linecap:round;stroke-linejoin:round;stroke-miterlimit:10;stroke-dasharray:none;stroke-opacity:1"
             d="M 0,0 C 1.562,1.562 1.879,3.778 0.707,4.949 L -0.354,6.01 c -1.17,1.172 -3.387,0.855 -4.949,-0.707 l -19.445,-19.445 5.303,-5.304 z" /></g><g
           transform="translate(103.6094,135.8027)"
           id="g32"><path
             id="path34"
             style="fill:none;stroke:#293f54;stroke-width:2.59800005;stroke-linecap:round;stroke-linejoin:round;stroke-miterlimit:10;stroke-dasharray:none;stroke-opacity:1"
             d="M 0,0 -1.061,1.061 C -2.231,2.232 -4.448,1.916 -6.01,0.354 l -19.445,-19.445 5.303,-5.304 19.445,19.446 C 0.855,-3.387 1.171,-1.171 0,0 Z" /></g><g
           transform="translate(31.7949,78.6631)"
           id="g36"><path
             id="path38"
             style="fill:none;stroke:#293f54;stroke-width:3;stroke-linecap:round;stroke-linejoin:round;stroke-miterlimit:10;stroke-dasharray:none;stroke-opacity:1"
             d="m 0,0 -25.793,-25.792 c 0,0 -10.4,-10.817 0.416,-22.881 7.681,-8.568 20.435,-6.096 26.486,-0.556 4.923,4.508 6.484,5.791 8.875,8.321 4.785,5.062 14.421,13.035 24.128,5.547 12.268,-9.463 -5.823,-28.289 -5.823,-28.289" /></g><g
           transform="translate(62.417,12.6797)"
           id="g40"><path
             id="path42"
             style="fill:none;stroke:#293f54;stroke-width:3;stroke-linecap:round;stroke-linejoin:round;stroke-miterlimit:10;stroke-dasharray:none;stroke-opacity:1"
             d="m 0,0 c 1.4,-1.19 1.513,-3.36 0.25,-4.845 l -4.285,-5.044 c -1.263,-1.484 -3.422,-1.724 -4.822,-0.534 l -5.39,4.58 c -1.4,1.19 -1.513,3.36 -0.25,4.844 l 4.286,5.043 C -8.949,5.53 -6.79,5.77 -5.389,4.58 Z" /></g></g></g></g></svg>